<svg id="Capa_1" enable-background="new 0 0 512 512" height="512" viewBox="0 0 512 512" width="512" xmlns="http://www.w3.org/2000/svg"><g><g><g><g><path d="m88.367 203.072-34.622 142.476 21.203 21.223 24.18-28.699 15.414-121.043z" fill="#72869e"/></g><g><path d="m78.28 338.903 30.378-125.011-20.291-10.82-34.622 142.476 21.203 21.223 14.262-16.928z" fill="#536275"/></g><g><path d="m53.745 345.548h-45.957v28.361l53.425 9.163 13.735-16.301z" fill="#92a2b5"/></g><g><path d="m31.463 373.909v-28.361h-23.675v28.361l53.425 9.163 2.989-3.548z" fill="#72869e"/></g><g><path d="m53.745 188.072v157.476l34.622-142.476z" fill="#536275"/></g><g><path d="m436.213 451.077h52.532v-150.464z" fill="#72869e"/></g><g><path d="m436.213 451.077h52.532v-22.979h-44.509z" fill="#536275"/></g><g><path d="m181.213 307.178-15 94.382 38.298 11.512z" fill="#536275"/></g><g><path d="m215.216 451.077h48.72l13.019-68.005z" fill="#536275"/></g><g><path d="m166.213 241.639 45 209.438h4.233l117.152-129.291-76.385-97.721-44.853 38.693z" fill="#72869e"/></g><g><path d="m230.002 432.288-38.412-178.778-25.377-11.871 45 209.438h4.233l17.025-18.789z" fill="#536275"/></g><g><path d="m443.937 165.859-113.797-37.787 10.009 23.234-83.936 72.759 177.447 227.012h2.553l67.999-193.766z" fill="#92a2b5"/></g><g><g><path d="m272.79 209.695-16.577 14.37 177.447 227.012h2.553l7.826-22.299z" fill="#72869e"/></g></g><g><path d="m301.213 60.923h-165l-82.468 72.766v54.383l157.468 75 128.936-111.766z" fill="#92a2b5"/></g><g><path d="m74.948 173.263v-28.924l94.538-83.416h-33.273l-82.468 72.766v54.383l157.468 75 18.544-16.075z" fill="#72869e"/></g><g><g><g><path d="m338.041 178.485h15v15h-15z" fill="#fff" transform="matrix(.756 -.655 .655 .756 -37.378 271.79)"/></g><g><path d="m315.372 198.135h15v15h-15z" fill="#fff" transform="matrix(.756 -.655 .655 .756 -55.789 261.743)"/></g></g></g><g><path d="m143.713 83.072h15v15h-15z" fill="#fff"/></g><g><path d="m173.713 83.072h15v15h-15z" fill="#fff"/></g></g></g><g><path d="m384.62 390.823h14.993v15.276h-14.993z" transform="matrix(.788 -.616 .616 .788 -162.207 325.991)"/><path d="m512 256.287-63.723-96.682-113.019-37.529-29.535-68.56h-34.92v14.993h25.053l34.797 80.773-121.028 104.91-148.695-70.822v-46.243l77.768-68.619h117.111v-14.993h-122.78l-87.092 76.846v207.649h-45.937v42.165l63.864 10.953 42.089-49.954 7.925-62.23-14.873-1.894-7.366 57.844-17.384 20.632-12.503-12.503 31.07-127.858 13.26 6.315-5.175 40.64 14.873 1.894 4.552-35.747 38.965 18.558 13.534 62.988-15.411 96.971 38.749 11.648 8.605 40.049h64.953l13.754-71.841 48.256-53.257 40.838 52.245 11.813-9.233-118.284-151.318 82.659-71.651-5.564-12.915 95.42 31.685 56.774 86.138-62.99 179.491-19.886-25.441-11.813 9.233 28.818 36.867h66.212v-155.842zm-454.068 118.613-42.939-7.364v-14.531h35.535l14.031 14.031zm2.998-91.991v-82.933l18.062 8.603zm113.352 113.291 7.274-45.77 11.016 51.267zm83.049 47.292h-25.361l32.155-35.487zm65.035-122.092-106.466 117.498-39.52-183.934 35.655 16.982 42.726-37.036zm158.373 122.092h-34.436l34.436-98.127z"/></g></g></svg>